<svg t="1733361663834" class="icon" viewBox="0 0 1024 1024" version="1.1" xmlns="http://www.w3.org/2000/svg" p-id="5230" width="200" height="200"><path d="M496.139266 108.820428c21.503756 0 33.431414 9.576099 35.839253 28.672016-2.408863 21.503756-14.33652 32.255635-35.839253 32.255635L227.341287 169.748079c-19.152199-2.351558-27.496238 5.991458-25.088398 25.088398l0 415.739633c-4.815679 121.855302-27.496238 217.446427-68.094888 286.718117-16.744359 23.856337-34.664497 33.432437-53.759391 28.67304-14.335497-9.576099-16.744359-27.496238-7.16826-53.759391 43.007513-78.847789 64.511269-180.375114 64.511269-304.637232L137.741619 173.331697c-2.408863-47.767933 19.095917-69.27169 64.511269-64.511269L496.139266 108.820428zM324.108191 252.178463l111.103424 0c45.360094-2.351558 66.86385 22.735817 64.511269 75.263148l0 218.622206c4.76042 78.847789-38.247092 105.167225-129.022539 78.847789-21.503756-7.16826-32.255635-21.503756-32.255635-43.007513 7.16826-23.856337 20.272719-34.607192 39.423895-32.255635 43.007513 16.743336 62.10343 8.399297 57.344033-25.088398L435.212638 334.609871c0-14.335497-7.16826-21.503756-21.503756-21.503756l-60.927651 0c-19.152199-2.351558-27.496238 8.400321-25.088398 32.255635l0 462.331787c0 7.16826 3.583618 9.576099 10.751878 7.16826 21.503756-11.927657 47.767933-28.672016 78.847789-50.17475 9.519818-7.16826 16.688077-13.104459 21.503756-17.920138 19.095917-11.927657 34.607192-9.520841 46.591131 7.167237 9.519818 19.152199 4.76042 35.839253-14.335497 50.175773-43.007513 31.079856-87.247086 57.343009-132.60718 78.847789-50.175773 21.503756-75.263148 3.583618-75.263148-53.759391L263.181563 309.522496C260.7727 268.922822 281.100678 249.826905 324.108191 252.178463zM711.17683 402.704758c0-23.856337 10.751878-37.015032 32.255635-39.422871 21.50478 2.407839 32.255635 15.567557 32.255635 39.422871 7.16826 167.270654-3.583618 283.134499-32.255635 347.645768-26.319435 69.326948-89.599667 132.60718-189.95019 189.95019-26.319435 14.33652-45.415352 13.104459-57.343009-3.583618-7.16826-21.50478 1.175779-40.654932 25.088398-57.344033 86.015026-47.767933 139.774417-102.70208 161.278173-164.861792C708.768991 657.167241 718.34509 553.232077 711.17683 402.704758zM933.383678 105.235786c16.688077 2.407839 26.263154 13.159718 28.672016 32.255635-2.408863 21.503756-11.983939 32.255635-28.672016 32.255635l-168.446433 0-21.50478 82.431408L854.535889 252.178463c45.359071 0 68.094888 23.911596 68.094888 71.679529l0 372.733143c0 21.503756-10.751878 33.487695-32.255635 35.839253-21.50478 0-33.488719-10.751878-35.839253-32.255635L854.535889 345.361749c0-19.095917-8.400321-28.672016-25.088398-28.672016-4.815679 0-8.400321 0-10.751878 0L664.585699 316.689732c-26.320459-2.351558-38.248116 4.816702-35.839253 21.503756l0 329.72563c0 23.911596-10.752902 37.072337-32.255635 39.422871-21.503756 0-33.487695-11.927657-35.839253-35.839253L560.651558 316.689732c0-43.007513 21.503756-64.511269 64.511269-64.511269l46.591131 0 25.088398-82.431408L578.570673 169.747055c-21.503756-2.351558-32.255635-13.103436-32.255635-32.255635 0-21.503756 10.752902-32.255635 32.255635-32.255635L933.383678 105.235786zM833.032132 753.934145c28.67304 23.911596 65.687048 60.927651 111.103424 111.103424-4.815679-2.408863-2.408863 1.175779 7.16826 10.751878 11.927657 19.095917 10.751878 35.839253-3.584642 50.175773-16.743336 11.927657-31.079856 9.519818-43.007513-7.16826-26.319435-35.839253-62.158688-72.91159-107.518782-111.103424 2.352581 2.408863 0 0-7.167237-7.167237-14.33652-14.33652-15.568581-29.847795-3.584642-46.592155C800.776498 739.598648 816.287773 739.598648 833.032132 753.934145z" p-id="5231"></path></svg>